# xmcd CD database file
#
# Track frame offsets:
#	182
#	10227
#	21582
#	32810
#	42750
#	53457
#	62235
#	71342
#	81910
#	97647
#	108035
#	119320
#	128467
#	141060
#	150350
#	160507
#	176757
#	186085
#	197877
#	208672
#
# Disc length: 2924 seconds
#
# Revision: 6
# Processed by: cddbd v1.5.2PL0 Copyright (c) Steve Scherf et al.
# Submitted via: CDex 1.70beta2
#
DISCID=fa0b6a14
DTITLE=Buck Owens - The Buck Owens Collection (1959-1990) - CD2
DYEAR=1992
DGENRE=Country
TTITLE0=I've Got A Tiger By The Tail - (1964)
TTITLE1=Cryin' Time - (1964)
TTITLE2=Memphis - (1964)
TTITLE3=Before You Go - (1965)
TTITLE4=Only You (Can Break My Heart) - (1965)
TTITLE5=Gonna Have Love - (1964)
TTITLE6=Buckaroo - (1965)
TTITLE7=Waitin' In Your Welfare Line - (1965)
TTITLE8=Dust On Mother's Bible - (1965)
TTITLE9=Think Of Me - (1966)
TTITLE10=Open Up Your Heart - (1966)
TTITLE11=Sam's Place - (1965)
TTITLE12=Your Tender Loving Care - (1966)
TTITLE13=It Takes People Like You (To Make People Like Me) - (1967)
TTITLE14=How Long Will My Baby Be Gone - (1967)
TTITLE15=Sweet Rosie Jones - (1967)
TTITLE16=Buck Owens with Buddy Alan - Let The World Keep On A Turnin'  - (1968)
TTITLE17=I've Got You On My Mind Again - (1968)
TTITLE18=Who's Gonna Mow Your Grass - (1968)
TTITLE19=Johnny B. Goode - (1969)
EXTD=YEAR: 1992
EXTT0=
EXTT1=
EXTT2=
EXTT3=
EXTT4=
EXTT5=
EXTT6=
EXTT7=
EXTT8=
EXTT9=
EXTT10=
EXTT11=
EXTT12=
EXTT13=
EXTT14=
EXTT15=
EXTT16=with Buddy Alan
EXTT17=
EXTT18=
EXTT19=
PLAYORDER=
